<svg xmlns="http://www.w3.org/2000/svg" xmlns:xlink="http://www.w3.org/1999/xlink" width="2500" zoomAndPan="magnify" viewBox="0 0 1874.88 412.499988" height="550" preserveAspectRatio="xMidYMid meet" version="1.0"><defs><g/><clipPath id="c625e78edd"><path d="M 1.074219 0 L 1873.683594 0 L 1873.683594 412 L 1.074219 412 Z M 1.074219 0 " clip-rule="nonzero"/></clipPath><clipPath id="59a6b3c066"><path d="M 0.964844 0 L 795 0 L 795 332 L 0.964844 332 Z M 0.964844 0 " clip-rule="nonzero"/></clipPath><clipPath id="07cfff99bb"><rect x="0" width="795" y="0" height="332"/></clipPath><clipPath id="f954f36863"><path d="M 794 0 L 1694.035156 0 L 1694.035156 332 L 794 332 Z M 794 0 " clip-rule="nonzero"/></clipPath><clipPath id="3d13aa4238"><rect x="0" width="901" y="0" height="332"/></clipPath><clipPath id="7b78757c5a"><rect x="0" width="1695" y="0" height="385"/></clipPath></defs><g clip-path="url(#c625e78edd)"><path fill="#ffffff" d="M 1.074219 0 L 1873.804688 0 L 1873.804688 412 L 1.074219 412 Z M 1.074219 0 " fill-opacity="1" fill-rule="nonzero"/><path fill="#ffffff" d="M 1.074219 0 L 1873.804688 0 L 1873.804688 412 L 1.074219 412 Z M 1.074219 0 " fill-opacity="1" fill-rule="nonzero"/></g><g transform="matrix(1, 0, 0, 1, 90, 0)"><g clip-path="url(#7b78757c5a)"><g clip-path="url(#59a6b3c066)"><g><g clip-path="url(#07cfff99bb)"><g fill="#4c1d95" fill-opacity="1"><g transform="translate(1.097566, 229.217672)"><g><path d="M 126.4375 -113.65625 C 131.375 -110.9375 135.800781 -107.363281 139.71875 -102.9375 C 143.125 -99.1875 146.273438 -94.332031 149.171875 -88.375 C 151.890625 -82.414062 153.25 -75.265625 153.25 -66.921875 C 153.25 -56.867188 151.632812 -47.757812 148.40625 -39.59375 C 145 -31.414062 140.226562 -24.429688 134.09375 -18.640625 C 127.789062 -12.679688 120.128906 -8.085938 111.109375 -4.859375 C 101.910156 -1.617188 91.4375 0 79.6875 0 L 12.765625 0 L 12.765625 -187.21875 L 79.6875 -187.21875 C 91.4375 -187.21875 101.144531 -185.769531 108.8125 -182.875 C 116.46875 -179.8125 122.597656 -175.984375 127.203125 -171.390625 C 131.796875 -166.785156 135.03125 -161.757812 136.90625 -156.3125 C 138.78125 -150.695312 139.71875 -145.421875 139.71875 -140.484375 C 139.71875 -135.710938 139.035156 -131.625 137.671875 -128.21875 C 136.140625 -124.8125 134.519531 -122.085938 132.8125 -120.046875 C 131.113281 -117.835938 129.582031 -116.21875 128.21875 -115.1875 C 126.851562 -114.164062 126.257812 -113.65625 126.4375 -113.65625 Z M 92.96875 -140.484375 C 92.96875 -147.117188 91.097656 -152.140625 87.359375 -155.546875 C 83.441406 -158.785156 76.375 -160.40625 66.15625 -160.40625 L 66.15625 -120.296875 C 76.375 -120.296875 83.441406 -122 87.359375 -125.40625 C 91.097656 -128.644531 92.96875 -133.671875 92.96875 -140.484375 Z M 66.15625 -26.8125 C 72.789062 -26.8125 78.320312 -27.921875 82.75 -30.140625 C 87.007812 -32.347656 90.414062 -35.15625 92.96875 -38.5625 C 95.53125 -41.800781 97.320312 -45.378906 98.34375 -49.296875 C 99.1875 -53.210938 99.609375 -56.875 99.609375 -60.28125 C 99.609375 -63.507812 99.1875 -67.082031 98.34375 -71 C 97.320312 -74.914062 95.53125 -78.578125 92.96875 -81.984375 C 90.414062 -85.222656 87.007812 -87.945312 82.75 -90.15625 C 78.320312 -92.375 72.789062 -93.484375 66.15625 -93.484375 Z M 66.15625 -26.8125 "/></g></g></g><g fill="#4c1d95" fill-opacity="1"><g transform="translate(162.01595, 229.217672)"><g><path d="M 93.234375 -193.359375 C 107.535156 -193.359375 120.050781 -190.546875 130.78125 -184.921875 C 141.332031 -179.128906 150.1875 -171.550781 157.34375 -162.1875 C 164.488281 -152.820312 169.851562 -142.179688 173.4375 -130.265625 C 177.007812 -118.347656 178.796875 -106.171875 178.796875 -93.734375 C 178.796875 -81.140625 177.007812 -68.878906 173.4375 -56.953125 C 169.851562 -45.035156 164.488281 -34.394531 157.34375 -25.03125 C 150.1875 -15.664062 141.332031 -8.171875 130.78125 -2.546875 C 120.050781 3.234375 107.535156 6.125 93.234375 6.125 C 78.929688 6.125 66.5 3.234375 55.9375 -2.546875 C 45.207031 -8.171875 36.269531 -15.664062 29.125 -25.03125 C 21.96875 -34.394531 16.601562 -45.035156 13.03125 -56.953125 C 9.445312 -68.878906 7.65625 -81.140625 7.65625 -93.734375 C 7.65625 -106.171875 9.445312 -118.347656 13.03125 -130.265625 C 16.601562 -142.179688 21.96875 -152.820312 29.125 -162.1875 C 36.269531 -171.550781 45.207031 -179.128906 55.9375 -184.921875 C 66.5 -190.546875 78.929688 -193.359375 93.234375 -193.359375 Z M 93.234375 -22.484375 C 96.804688 -22.484375 100.296875 -23.84375 103.703125 -26.5625 C 107.109375 -29.289062 110.171875 -33.546875 112.890625 -39.328125 C 115.617188 -45.117188 117.832031 -52.53125 119.53125 -61.5625 C 121.070312 -70.414062 121.84375 -81.140625 121.84375 -93.734375 C 121.84375 -106.171875 121.070312 -116.898438 119.53125 -125.921875 C 117.832031 -134.941406 115.617188 -142.347656 112.890625 -148.140625 C 110.171875 -153.929688 107.109375 -158.191406 103.703125 -160.921875 C 100.296875 -163.640625 96.804688 -165 93.234375 -165 C 89.648438 -165 86.15625 -163.640625 82.75 -160.921875 C 79.34375 -158.191406 76.28125 -153.929688 73.5625 -148.140625 C 70.832031 -142.347656 68.703125 -134.941406 67.171875 -125.921875 C 65.472656 -116.898438 64.625 -106.171875 64.625 -93.734375 C 64.625 -81.140625 65.472656 -70.414062 67.171875 -61.5625 C 68.703125 -52.53125 70.832031 -45.117188 73.5625 -39.328125 C 76.28125 -33.546875 79.34375 -29.289062 82.75 -26.5625 C 86.15625 -23.84375 89.648438 -22.484375 93.234375 -22.484375 Z M 93.234375 -22.484375 "/></g></g></g><g fill="#4c1d95" fill-opacity="1"><g transform="translate(348.47693, 229.217672)"><g><path d="M 86.328125 -187.21875 C 101.316406 -187.21875 114.34375 -184.238281 125.40625 -178.28125 C 136.3125 -172.320312 145.335938 -164.742188 152.484375 -155.546875 C 159.460938 -146.359375 164.65625 -136.226562 168.0625 -125.15625 C 171.46875 -114.082031 173.171875 -103.523438 173.171875 -93.484375 C 173.171875 -81.734375 171.210938 -70.328125 167.296875 -59.265625 C 163.210938 -48.023438 157.425781 -38.0625 149.9375 -29.375 C 142.269531 -20.519531 133.070312 -13.453125 122.34375 -8.171875 C 111.613281 -2.722656 99.609375 0 86.328125 0 L 12.765625 0 L 12.765625 -187.21875 Z M 79.6875 -26.8125 C 86.332031 -26.8125 92.207031 -28.769531 97.3125 -32.6875 C 102.25 -36.4375 106.421875 -41.460938 109.828125 -47.765625 C 113.066406 -53.890625 115.535156 -60.957031 117.234375 -68.96875 C 118.941406 -76.96875 119.796875 -85.140625 119.796875 -93.484375 C 119.796875 -101.828125 118.941406 -110 117.234375 -118 C 115.535156 -126.007812 113.066406 -133.160156 109.828125 -139.453125 C 106.421875 -145.753906 102.25 -150.863281 97.3125 -154.78125 C 92.207031 -158.53125 86.332031 -160.40625 79.6875 -160.40625 L 66.15625 -160.40625 L 66.15625 -26.8125 Z M 79.6875 -26.8125 "/></g></g></g><g fill="#4c1d95" fill-opacity="1"><g transform="translate(529.318559, 229.217672)"><g><path d="M 173.171875 -187.21875 L 173.171875 0 L 119.796875 0 L 119.796875 -86.84375 L 66.15625 -86.84375 L 66.15625 0 L 12.765625 0 L 12.765625 -187.21875 L 66.15625 -187.21875 L 66.15625 -113.65625 L 119.796875 -113.65625 L 119.796875 -187.21875 Z M 173.171875 -187.21875 "/></g></g></g><g fill="#4c1d95" fill-opacity="1"><g transform="translate(715.268715, 229.217672)"><g><path d="M 12.765625 -187.21875 L 66.15625 -187.21875 L 66.15625 0 L 12.765625 0 Z M 12.765625 -187.21875 "/></g></g></g></g></g></g><g clip-path="url(#f954f36863)"><g transform="matrix(1, 0, 0, 1, 794, 0)"><g clip-path="url(#3d13aa4238)"><g fill="#7c3aed" fill-opacity="1"><g transform="translate(0.184205, 229.217672)"><g><path d="M 86.328125 -107.015625 L 79.6875 -80.203125 L 12.765625 -80.203125 L 19.40625 -107.015625 Z M 86.328125 -107.015625 "/></g></g></g><g fill="#7c3aed" fill-opacity="1"><g transform="translate(99.289485, 229.217672)"><g><path d="M 213.28125 -187.21875 L 213.28125 0 L 159.890625 0 L 159.890625 -93.484375 L 133.078125 0 L 79.6875 0 L 52.875 -93.484375 L 52.875 0 L 12.765625 0 L 12.765625 -187.21875 L 79.6875 -187.21875 L 113.15625 -70.234375 L 146.609375 -187.21875 Z M 213.28125 -187.21875 "/></g></g></g><g fill="#7c3aed" fill-opacity="1"><g transform="translate(325.341504, 229.217672)"><g><path d="M 12.765625 -187.21875 L 66.15625 -187.21875 L 66.15625 0 L 12.765625 0 Z M 12.765625 -187.21875 "/></g></g></g><g fill="#7c3aed" fill-opacity="1"><g transform="translate(404.268185, 229.217672)"><g><path d="M 105.484375 -147.125 L 105.484375 0 L 51.84375 0 L 51.84375 -147.125 L 5.109375 -147.125 L 11.75 -187.21875 L 145.59375 -187.21875 L 152.234375 -147.125 Z M 105.484375 -147.125 "/></g></g></g><g fill="#7c3aed" fill-opacity="1"><g transform="translate(561.610593, 229.217672)"><g><path d="M 159.890625 0 L 106.25 0 L 79.6875 -80.203125 L 66.15625 -80.203125 L 66.15625 0 L 12.765625 0 L 12.765625 -187.21875 L 79.6875 -187.21875 C 89.738281 -187.21875 99.273438 -186.367188 108.296875 -184.671875 C 117.148438 -182.796875 124.898438 -179.816406 131.546875 -175.734375 C 138.179688 -171.472656 143.457031 -165.9375 147.375 -159.125 C 151.289062 -152.3125 153.25 -143.882812 153.25 -133.84375 C 153.25 -122.769531 150.953125 -113.742188 146.359375 -106.765625 C 141.753906 -99.609375 135.539062 -93.988281 127.71875 -89.90625 Z M 66.15625 -107.015625 C 71.769531 -107.015625 76.789062 -107.785156 81.21875 -109.328125 C 85.476562 -110.859375 89.054688 -112.898438 91.953125 -115.453125 C 94.671875 -117.835938 96.800781 -120.644531 98.34375 -123.875 C 99.695312 -126.945312 100.375 -130.179688 100.375 -133.578125 C 100.375 -136.984375 99.695312 -140.304688 98.34375 -143.546875 C 96.800781 -146.785156 94.671875 -149.679688 91.953125 -152.234375 C 89.054688 -154.617188 85.476562 -156.578125 81.21875 -158.109375 C 76.789062 -159.640625 71.769531 -160.40625 66.15625 -160.40625 Z M 66.15625 -107.015625 "/></g></g></g><g fill="#7c3aed" fill-opacity="1"><g transform="translate(729.170093, 229.217672)"><g><path d="M 96.8125 -53.390625 L 60.53125 -53.390625 L 45.203125 0 L 5.109375 0 L 58.484375 -187.21875 L 112.125 -187.21875 L 165.515625 0 L 112.125 0 Z M 89.140625 -80.203125 L 78.671875 -116.984375 L 68.203125 -80.203125 Z M 89.140625 -80.203125 "/></g></g></g></g></g></g><g fill="#012252" fill-opacity="1"><g transform="translate(385.652476, 363.234525)"><g><path d="M 20.828125 -85.859375 L 32.84375 -85.859375 C 37.925781 -85.859375 41.769531 -84.550781 44.375 -81.9375 C 46.988281 -79.332031 48.296875 -75.488281 48.296875 -70.40625 L 48.296875 -59.03125 C 48.296875 -57.882812 47.722656 -57.3125 46.578125 -57.3125 L 35.421875 -57.3125 C 34.273438 -57.3125 33.703125 -57.882812 33.703125 -59.03125 L 33.703125 -67.40625 C 33.703125 -70.257812 32.269531 -71.6875 29.40625 -71.6875 L 24.25 -71.6875 C 21.394531 -71.6875 19.96875 -70.257812 19.96875 -67.40625 L 19.96875 -52.59375 L 45.5 -44.21875 C 47.363281 -43.425781 48.296875 -42.101562 48.296875 -40.25 L 48.296875 -15.453125 C 48.296875 -10.441406 46.988281 -6.613281 44.375 -3.96875 C 41.769531 -1.320312 37.925781 0 32.84375 0 L 20.828125 0 C 15.816406 0 11.984375 -1.320312 9.328125 -3.96875 C 6.679688 -6.613281 5.359375 -10.441406 5.359375 -15.453125 L 5.359375 -26.71875 C 5.359375 -27.863281 5.929688 -28.4375 7.078125 -28.4375 L 18.25 -28.4375 C 19.394531 -28.4375 19.96875 -27.863281 19.96875 -26.71875 L 19.96875 -18.453125 C 19.96875 -15.597656 21.394531 -14.171875 24.25 -14.171875 L 29.40625 -14.171875 C 32.269531 -14.171875 33.703125 -15.597656 33.703125 -18.453125 L 33.703125 -32.734375 L 8.265625 -41.109375 C 6.328125 -41.753906 5.359375 -43.078125 5.359375 -45.078125 L 5.359375 -70.40625 C 5.359375 -75.488281 6.679688 -79.332031 9.328125 -81.9375 C 11.984375 -84.550781 15.816406 -85.859375 20.828125 -85.859375 Z M 20.828125 -85.859375 "/></g></g></g><g fill="#012252" fill-opacity="1"><g transform="translate(439.310129, 363.234525)"><g><path d="M 5.359375 -15.453125 L 5.359375 -59.671875 C 5.359375 -64.753906 6.679688 -68.597656 9.328125 -71.203125 C 11.984375 -73.816406 15.816406 -75.125 20.828125 -75.125 L 32.84375 -75.125 C 37.925781 -75.125 41.769531 -73.816406 44.375 -71.203125 C 46.988281 -68.597656 48.296875 -64.753906 48.296875 -59.671875 L 48.296875 -15.453125 C 48.296875 -10.441406 46.988281 -6.613281 44.375 -3.96875 C 41.769531 -1.320312 37.925781 0 32.84375 0 L 20.828125 0 C 15.816406 0 11.984375 -1.320312 9.328125 -3.96875 C 6.679688 -6.613281 5.359375 -10.441406 5.359375 -15.453125 Z M 23.609375 -13.84375 L 30.484375 -13.84375 C 33.347656 -13.84375 34.78125 -15.273438 34.78125 -18.140625 L 34.78125 -56.984375 C 34.78125 -59.847656 33.347656 -61.28125 30.484375 -61.28125 L 23.609375 -61.28125 C 20.742188 -61.28125 19.3125 -59.847656 19.3125 -56.984375 L 19.3125 -18.140625 C 19.3125 -15.273438 20.742188 -13.84375 23.609375 -13.84375 Z M 23.609375 -13.84375 "/></g></g></g><g fill="#012252" fill-opacity="1"><g transform="translate(492.967783, 363.234525)"><g><path d="M 19.96875 -14.171875 L 19.96875 -73.40625 C 19.96875 -74.550781 19.394531 -75.125 18.25 -75.125 L 7.078125 -75.125 C 5.929688 -75.125 5.359375 -74.550781 5.359375 -73.40625 L 5.359375 -1.71875 C 5.359375 -0.570312 5.929688 0 7.078125 0 L 41.21875 0 C 42.363281 0 42.9375 -0.570312 42.9375 -1.71875 L 42.9375 -12.453125 C 42.9375 -13.597656 42.363281 -14.171875 41.21875 -14.171875 Z M 19.96875 -14.171875 "/></g></g></g><g fill="#012252" fill-opacity="1"><g transform="translate(539.113181, 363.234525)"><g><path d="M 56.03125 0 L 45.609375 0 C 44.679688 0 44.109375 -0.5 43.890625 -1.5 L 40.46875 -15.03125 L 20.28125 -15.03125 L 16.953125 -1.5 C 16.742188 -0.5 16.171875 0 15.234375 0 L 4.71875 0 C 3.4375 0 2.972656 -0.609375 3.328125 -1.828125 L 21.140625 -73.625 C 21.359375 -74.625 21.96875 -75.125 22.96875 -75.125 L 37.890625 -75.125 C 38.890625 -75.125 39.5 -74.625 39.71875 -73.625 L 57.53125 -1.828125 C 57.882812 -0.609375 57.382812 0 56.03125 0 Z M 37.140625 -27.46875 L 30.375 -56.671875 L 23.609375 -27.46875 Z M 37.140625 -27.46875 "/></g></g></g><g fill="#012252" fill-opacity="1"><g transform="translate(596.741211, 363.234525)"><g><path d="M 48.40625 -59.671875 L 48.40625 -48.078125 C 48.40625 -46.929688 47.832031 -46.359375 46.6875 -46.359375 L 36.59375 -46.359375 C 35.445312 -46.359375 34.875 -46.929688 34.875 -48.078125 L 34.875 -56.890625 C 34.875 -59.742188 33.445312 -61.171875 30.59375 -61.171875 L 23.71875 -61.171875 C 20.851562 -61.171875 19.421875 -59.742188 19.421875 -56.890625 L 19.421875 -17.921875 C 19.421875 -15.054688 20.851562 -13.625 23.71875 -13.625 L 30.59375 -13.625 C 33.445312 -13.625 34.875 -15.054688 34.875 -17.921875 L 34.875 -27.046875 C 34.875 -28.191406 35.445312 -28.765625 36.59375 -28.765625 L 46.6875 -28.765625 C 47.832031 -28.765625 48.40625 -28.191406 48.40625 -27.046875 L 48.40625 -15.453125 C 48.40625 -10.441406 47.082031 -6.613281 44.4375 -3.96875 C 41.789062 -1.320312 37.960938 0 32.953125 0 L 20.921875 0 C 15.921875 0 12.078125 -1.320312 9.390625 -3.96875 C 6.703125 -6.613281 5.359375 -10.441406 5.359375 -15.453125 L 5.359375 -59.671875 C 5.359375 -64.753906 6.703125 -68.597656 9.390625 -71.203125 C 12.078125 -73.816406 15.921875 -75.125 20.921875 -75.125 L 32.953125 -75.125 C 37.960938 -75.125 41.789062 -73.816406 44.4375 -71.203125 C 47.082031 -68.597656 48.40625 -64.753906 48.40625 -59.671875 Z M 48.40625 -59.671875 "/></g></g></g><g fill="#012252" fill-opacity="1"><g transform="translate(650.506191, 363.234525)"><g><path d="M 48.1875 -73.40625 L 48.1875 -62.671875 C 48.1875 -61.460938 47.613281 -60.859375 46.46875 -60.859375 L 19.96875 -60.859375 L 19.96875 -44.328125 L 40.140625 -44.328125 C 41.285156 -44.328125 41.859375 -43.71875 41.859375 -42.5 L 41.859375 -31.875 C 41.859375 -30.65625 41.285156 -30.046875 40.140625 -30.046875 L 19.96875 -30.046875 L 19.96875 -14.171875 L 46.46875 -14.171875 C 47.613281 -14.171875 48.1875 -13.597656 48.1875 -12.453125 L 48.1875 -1.71875 C 48.1875 -0.570312 47.613281 0 46.46875 0 L 6.96875 0 C 5.894531 0 5.359375 -0.570312 5.359375 -1.71875 L 5.359375 -73.40625 C 5.359375 -74.550781 5.894531 -75.125 6.96875 -75.125 L 46.46875 -75.125 C 47.613281 -75.125 48.1875 -74.550781 48.1875 -73.40625 Z M 48.1875 -73.40625 "/></g></g></g><g fill="#012252" fill-opacity="1"><g transform="translate(704.056518, 363.234525)"><g/></g></g><g fill="#012252" fill-opacity="1"><g transform="translate(730.885355, 363.234525)"><g><path d="M 44.4375 -75.125 L 4.9375 -75.125 C 3.789062 -75.125 3.21875 -74.550781 3.21875 -73.40625 L 3.21875 -62.671875 C 3.21875 -61.535156 3.789062 -60.96875 4.9375 -60.96875 L 17.390625 -60.96875 L 17.390625 -1.71875 C 17.390625 -0.570312 17.960938 0 19.109375 0 L 30.265625 0 C 31.410156 0 31.984375 -0.570312 31.984375 -1.71875 L 31.984375 -60.96875 L 44.4375 -60.96875 C 45.582031 -60.96875 46.15625 -61.535156 46.15625 -62.671875 L 46.15625 -73.40625 C 46.15625 -74.550781 45.582031 -75.125 44.4375 -75.125 Z M 44.4375 -75.125 "/></g></g></g><g fill="#012252" fill-opacity="1"><g transform="translate(779.177163, 363.234525)"><g><path d="M 5.359375 -15.453125 L 5.359375 -59.671875 C 5.359375 -64.753906 6.679688 -68.597656 9.328125 -71.203125 C 11.984375 -73.816406 15.816406 -75.125 20.828125 -75.125 L 32.84375 -75.125 C 37.925781 -75.125 41.769531 -73.816406 44.375 -71.203125 C 46.988281 -68.597656 48.296875 -64.753906 48.296875 -59.671875 L 48.296875 -15.453125 C 48.296875 -10.441406 46.988281 -6.613281 44.375 -3.96875 C 41.769531 -1.320312 37.925781 0 32.84375 0 L 20.828125 0 C 15.816406 0 11.984375 -1.320312 9.328125 -3.96875 C 6.679688 -6.613281 5.359375 -10.441406 5.359375 -15.453125 Z M 23.609375 -13.84375 L 30.484375 -13.84375 C 33.347656 -13.84375 34.78125 -15.273438 34.78125 -18.140625 L 34.78125 -56.984375 C 34.78125 -59.847656 33.347656 -61.28125 30.484375 -61.28125 L 23.609375 -61.28125 C 20.742188 -61.28125 19.3125 -59.847656 19.3125 -56.984375 L 19.3125 -18.140625 C 19.3125 -15.273438 20.742188 -13.84375 23.609375 -13.84375 Z M 23.609375 -13.84375 "/></g></g></g><g fill="#012252" fill-opacity="1"><g transform="translate(832.834796, 363.234525)"><g/></g></g><g fill="#012252" fill-opacity="1"><g transform="translate(859.663634, 363.234525)"><g><path d="M 42.71875 -75.125 L 53.453125 -75.125 C 54.234375 -75.125 54.800781 -74.890625 55.15625 -74.421875 C 55.519531 -73.960938 55.523438 -73.375 55.171875 -72.65625 L 35.53125 -28.125 L 35.53125 -2.140625 C 35.53125 -0.710938 34.8125 0 33.375 0 L 23.078125 0 C 21.640625 0 20.921875 -0.710938 20.921875 -2.140625 L 20.921875 -28.125 L 1.28125 -72.65625 C 1 -73.375 1.019531 -73.960938 1.34375 -74.421875 C 1.664062 -74.890625 2.21875 -75.125 3 -75.125 L 13.734375 -75.125 C 14.953125 -75.125 15.773438 -74.550781 16.203125 -73.40625 L 28.234375 -45.828125 L 40.25 -73.40625 C 40.675781 -74.550781 41.5 -75.125 42.71875 -75.125 Z M 42.71875 -75.125 "/></g></g></g><g fill="#012252" fill-opacity="1"><g transform="translate(913.964983, 363.234525)"><g><path d="M 5.359375 -15.453125 L 5.359375 -59.671875 C 5.359375 -64.753906 6.679688 -68.597656 9.328125 -71.203125 C 11.984375 -73.816406 15.816406 -75.125 20.828125 -75.125 L 32.84375 -75.125 C 37.925781 -75.125 41.769531 -73.816406 44.375 -71.203125 C 46.988281 -68.597656 48.296875 -64.753906 48.296875 -59.671875 L 48.296875 -15.453125 C 48.296875 -10.441406 46.988281 -6.613281 44.375 -3.96875 C 41.769531 -1.320312 37.925781 0 32.84375 0 L 20.828125 0 C 15.816406 0 11.984375 -1.320312 9.328125 -3.96875 C 6.679688 -6.613281 5.359375 -10.441406 5.359375 -15.453125 Z M 23.609375 -13.84375 L 30.484375 -13.84375 C 33.347656 -13.84375 34.78125 -15.273438 34.78125 -18.140625 L 34.78125 -56.984375 C 34.78125 -59.847656 33.347656 -61.28125 30.484375 -61.28125 L 23.609375 -61.28125 C 20.742188 -61.28125 19.3125 -59.847656 19.3125 -56.984375 L 19.3125 -18.140625 C 19.3125 -15.273438 20.742188 -13.84375 23.609375 -13.84375 Z M 23.609375 -13.84375 "/></g></g></g><g fill="#012252" fill-opacity="1"><g transform="translate(967.622657, 363.234525)"><g><path d="M 36.28125 -75.125 L 46.15625 -75.125 C 46.726562 -75.125 47.226562 -74.910156 47.65625 -74.484375 C 48.082031 -74.054688 48.296875 -73.554688 48.296875 -72.984375 L 48.296875 -15.453125 C 48.296875 -10.441406 46.988281 -6.613281 44.375 -3.96875 C 41.769531 -1.320312 37.925781 0 32.84375 0 L 20.828125 0 C 15.816406 0 11.984375 -1.320312 9.328125 -3.96875 C 6.679688 -6.613281 5.359375 -10.441406 5.359375 -15.453125 L 5.359375 -72.984375 C 5.359375 -73.554688 5.570312 -74.054688 6 -74.484375 C 6.4375 -74.910156 6.941406 -75.125 7.515625 -75.125 L 17.8125 -75.125 C 18.382812 -75.125 18.882812 -74.910156 19.3125 -74.484375 C 19.75 -74.054688 19.96875 -73.554688 19.96875 -72.984375 L 19.96875 -18.453125 C 19.96875 -15.597656 21.394531 -14.171875 24.25 -14.171875 L 29.84375 -14.171875 C 32.695312 -14.171875 34.125 -15.597656 34.125 -18.453125 L 34.125 -72.984375 C 34.125 -73.554688 34.335938 -74.054688 34.765625 -74.484375 C 35.203125 -74.910156 35.707031 -75.125 36.28125 -75.125 Z M 36.28125 -75.125 "/></g></g></g><g fill="#012252" fill-opacity="1"><g transform="translate(1021.28029, 363.234525)"><g><path d="M 48.296875 -59.671875 L 48.296875 -38.09375 C 48.296875 -31.875 46.289062 -27.507812 42.28125 -25 L 47.875 -1.9375 C 48.226562 -0.644531 47.722656 0 46.359375 0 L 35.84375 0 C 34.84375 0 34.234375 -0.5 34.015625 -1.5 L 28.875 -22.640625 L 19.3125 -22.640625 L 19.3125 -1.71875 C 19.3125 -0.570312 18.742188 0 17.609375 0 L 7.078125 0 C 5.929688 0 5.359375 -0.570312 5.359375 -1.71875 L 5.359375 -73.40625 C 5.359375 -74.550781 5.929688 -75.125 7.078125 -75.125 L 32.84375 -75.125 C 37.925781 -75.125 41.769531 -73.816406 44.375 -71.203125 C 46.988281 -68.597656 48.296875 -64.753906 48.296875 -59.671875 Z M 19.3125 -36.484375 L 30.046875 -36.484375 C 32.910156 -36.484375 34.34375 -37.914062 34.34375 -40.78125 L 34.34375 -56.984375 C 34.34375 -59.847656 32.910156 -61.28125 30.046875 -61.28125 L 19.3125 -61.28125 Z M 19.3125 -36.484375 "/></g></g></g><g fill="#012252" fill-opacity="1"><g transform="translate(1074.937965, 363.234525)"><g/></g></g><g fill="#012252" fill-opacity="1"><g transform="translate(1101.766802, 363.234525)"><g><path d="M 50.234375 -85.859375 L 64.390625 -85.859375 C 65.828125 -85.859375 66.546875 -85.144531 66.546875 -83.71875 L 66.546875 -2.140625 C 66.546875 -0.710938 65.828125 0 64.390625 0 L 54.421875 0 C 52.984375 0 52.265625 -0.710938 52.265625 -2.140625 L 52.265625 -50.4375 L 51.515625 -50.4375 L 40.890625 -1.9375 C 40.609375 -0.644531 39.820312 0 38.53125 0 L 33.265625 0 C 32.054688 0 31.269531 -0.644531 30.90625 -1.9375 L 20.28125 -50.4375 L 19.53125 -50.4375 L 19.53125 -2.140625 C 19.53125 -0.710938 18.816406 0 17.390625 0 L 7.515625 0 C 6.078125 0 5.359375 -0.710938 5.359375 -2.140625 L 5.359375 -83.71875 C 5.359375 -85.144531 6.078125 -85.859375 7.515625 -85.859375 L 21.6875 -85.859375 C 22.96875 -85.859375 23.753906 -85.21875 24.046875 -83.9375 L 35.953125 -30.484375 L 47.875 -83.9375 C 48.226562 -85.21875 49.015625 -85.859375 50.234375 -85.859375 Z M 50.234375 -85.859375 "/></g></g></g><g fill="#012252" fill-opacity="1"><g transform="translate(1173.668042, 363.234525)"><g><path d="M 7.078125 0 L 18.25 0 C 19.394531 0 19.96875 -0.570312 19.96875 -1.71875 L 19.96875 -73.40625 C 19.96875 -74.550781 19.394531 -75.125 18.25 -75.125 L 7.078125 -75.125 C 5.929688 -75.125 5.359375 -74.550781 5.359375 -73.40625 L 5.359375 -1.71875 C 5.359375 -0.570312 5.929688 0 7.078125 0 Z M 7.078125 0 "/></g></g></g><g fill="#012252" fill-opacity="1"><g transform="translate(1198.994463, 363.234525)"><g><path d="M 39.390625 -75.125 L 49.484375 -75.125 C 50.628906 -75.125 51.203125 -74.550781 51.203125 -73.40625 L 51.203125 -1.71875 C 51.203125 -0.570312 50.628906 0 49.484375 0 L 41 0 C 40.144531 0 39.5 -0.460938 39.0625 -1.390625 L 18.890625 -42.390625 L 18.890625 -1.71875 C 18.890625 -0.570312 18.316406 0 17.171875 0 L 7.078125 0 C 5.929688 0 5.359375 -0.570312 5.359375 -1.71875 L 5.359375 -73.40625 C 5.359375 -74.550781 5.929688 -75.125 7.078125 -75.125 L 15.5625 -75.125 C 16.414062 -75.125 17.0625 -74.660156 17.5 -73.734375 L 37.671875 -32.734375 L 37.671875 -73.40625 C 37.671875 -74.550781 38.242188 -75.125 39.390625 -75.125 Z M 39.390625 -75.125 "/></g></g></g><g fill="#012252" fill-opacity="1"><g transform="translate(1255.549642, 363.234525)"><g><path d="M 5.359375 -1.71875 L 5.359375 -73.40625 C 5.359375 -74.550781 5.929688 -75.125 7.078125 -75.125 L 32.84375 -75.125 C 37.925781 -75.125 41.769531 -73.800781 44.375 -71.15625 C 46.988281 -68.507812 48.296875 -64.644531 48.296875 -59.5625 L 48.296875 -15.453125 C 48.296875 -10.441406 46.988281 -6.613281 44.375 -3.96875 C 41.769531 -1.320312 37.925781 0 32.84375 0 L 7.078125 0 C 5.929688 0 5.359375 -0.570312 5.359375 -1.71875 Z M 19.96875 -14.171875 L 29.84375 -14.171875 C 32.695312 -14.171875 34.125 -15.597656 34.125 -18.453125 L 34.125 -56.5625 C 34.125 -59.5 32.695312 -60.96875 29.84375 -60.96875 L 19.96875 -60.96875 Z M 19.96875 -14.171875 "/></g></g></g></g></g></svg>